<?xml version="1.0" encoding="UTF-8" standalone="no"?>
<!-- Created with Inkscape (http://www.inkscape.org/) -->

<svg
   width="95.324791mm"
   height="22.823961mm"
   viewBox="0 0 9.078552 2.1737111"
   version="1.1"
   id="svg1"
   xml:space="preserve"
   xmlns="http://www.w3.org/2000/svg"
   xmlns:svg="http://www.w3.org/2000/svg"><defs
     id="defs1" /><g
     id="g245"
     style="fill:#ffffff"><path
       style="fill:#ffffff;stroke-width:0.699481"
       d="m 2.1692706,0.9154816 v -0.06196 H 1.8761824 1.5830942 v 0.06196 0.06196 h 0.2930882 0.2930882 z"
       id="path242" /><path
       style="fill:#ffffff;stroke-width:0.699481"
       d="m 1.5805912,0.9799516 c -0.00194,-0.002 -0.00244,-0.124456 -5.243e-4,-0.127475 8.813e-4,-0.0014 0.061044,-0.0017 0.2961997,-0.0014 l 0.2950926,3.51e-4 v 0.06474 0.06474 l -0.294547,3.51e-4 c -0.2279419,2.72e-4 -0.2949255,-2.7e-5 -0.296221,-0.0013 z"
       id="path241" /><path
       style="fill:#ffffff;stroke-width:0.699481"
       d="m 1.3188948,0.5524296 3.503e-4,-0.425013 0.4250128,-3.5e-4 0.4250127,-3.5e-4 V 0.0647604 0.0028033 H 1.6819505 1.1946304 v 0.4873203 0.48732 h 0.061957 0.061957 z"
       id="path240" /><path
       style="fill:#ffffff;stroke-width:0.699481"
       d="m 1.1920258,0.9797506 c -0.00117,-0.0014 -0.00148,-0.128326 -0.00122,-0.490467 L 1.1911537,7.137e-4 1.6816065,3.637e-4 2.1720593,1.36e-5 v 0.064746 0.064746 H 1.7466967 1.3213382 l -3.504e-4,0.425709 -3.503e-4,0.425709 -0.063518,3.62e-4 c -0.052281,2.98e-4 -0.063797,2.6e-5 -0.065094,-0.0015 z"
       id="path239" /><path
       style="fill:#ffffff;stroke-width:0.699481"
       d="m 0.9774249,0.9168806 v -0.06196 l -0.4250128,-3.51e-4 -0.4250127,-3.51e-4 v -0.320934 c 0,-0.264288 3.309e-4,-0.322287 0.00187,-0.328593 0.00267,-0.01088 0.012877,-0.03133 0.020337,-0.04071 0.011702,-0.01472 0.032471,-0.0281 0.052975,-0.03411 0.00787,-0.0023 0.030493,-0.0025 0.3915965,-0.0028 l 0.3832425,-3.63e-4 v -0.061966 -0.061966 l -0.3950774,4.039e-4 -0.3950774,4.039e-4 -0.013448,0.0031 c -0.086892,0.020037 -0.1470981,0.080274 -0.1671969,0.1672852 l -0.00308,0.01333 -3.991e-4,0.395774 -3.991e-4,0.395773 h 0.4873391 0.4873391 z"
       id="path238" /><path
       style="fill:#ffffff;stroke-width:0.699481"
       d="M 6.335e-4,0.9798706 C 2.642e-4,0.9788916 1.424e-4,0.7995576 3.63e-4,0.5813126 l 4.009e-4,-0.396808 0.00306,-0.01291 c 0.010527,-0.04441 0.028757,-0.07762 0.059449,-0.1082936 0.032836,-0.03282 0.071381,-0.052826 0.116336,-0.060381 L 0.1970129,0 0.5889575,3.584e-4 0.9809021,7.168e-4 v 0.064048 0.064048 l -0.3842867,7e-4 -0.3842867,6.99e-4 -0.01042,0.0032 c -0.028175,0.0087 -0.049004,0.02606 -0.061335,0.05107 -0.011399,0.02312 -0.010342,-0.011 -0.010758,0.347042 l -3.716e-4,0.319195 h 0.4244067 c 0.3282376,0 0.4247853,3.78e-4 0.4260775,0.0017 0.00125,0.0013 0.00167,0.01721 0.00167,0.06324 0,0.03386 -3.803e-4,0.06256 -8.463e-4,0.06377 -7.695e-4,0.002 -0.045252,0.0022 -0.4901485,0.0022 -0.3915488,0 -0.4894375,-3.5e-4 -0.4899748,-0.0018 z"
       id="path237" /><path
       style="fill:#ffffff;stroke-width:0.699481"
       d="m 2.0009215,2.1654806 c 0.043881,-0.01094 0.075102,-0.02821 0.1051041,-0.05813 0.030938,-0.03086 0.048775,-0.06337 0.059414,-0.108291 l 0.00308,-0.01291 4.057e-4,-0.395773 4.056e-4,-0.395773 H 1.8762037 1.5830942 v 0.06195 0.06195 l 0.2307808,3.85e-4 0.2307809,3.52e-4 4.162e-4,0.315366 c 3.065e-4,0.232257 -5.1e-6,0.318118 -0.00118,0.325808 -0.00486,0.03175 -0.025803,0.0602 -0.054706,0.07432 -0.023577,0.01151 0.00616,0.01062 -0.3517153,0.01062 H 1.318549 V 1.6199936 1.1946326 H 1.25659 1.194631 v 0.487339 0.487339 l 0.3971659,-4.08e-4 0.3971658,-4.09e-4 z"
       id="path236" /><path
       style="fill:#ffffff;stroke-width:0.699481"
       d="m 1.1920142,2.1715806 c -0.00115,-0.0014 -0.00148,-0.130433 -0.00122,-0.490453 l 3.501e-4,-0.488567 0.065092,-3.62e-4 0.065092,-3.62e-4 v 0.425392 0.425392 l 0.320587,-3.66e-4 0.320587,-3.65e-4 0.011138,-0.0038 c 0.024973,-0.0085 0.04523,-0.02559 0.056693,-0.04782 0.01267,-0.02457 0.011413,0.01238 0.01187,-0.349024 l 4.041e-4,-0.319887 -0.2315003,-3.52e-4 -0.2315003,-3.52e-4 v -0.06404 -0.06404 l 0.296221,-3.52e-4 0.296221,-3.51e-4 v 0.392505 c 0,0.383422 -6.29e-5,0.392875 -0.00273,0.408462 -0.00786,0.04595 -0.026727,0.08211 -0.06054,0.116035 -0.037751,0.03787 -0.079346,0.05762 -0.1330503,0.06319 -0.00833,8.4e-4 -0.1555268,0.0014 -0.3976916,0.0014 -0.3216673,2.1e-5 -0.3847199,-2.83e-4 -0.3860291,-0.0019 z"
       id="path235" /><path
       style="fill:#ffffff;stroke-width:0.699481"
       d="m 0.9774249,1.6819686 v -0.48732 H 0.4901048 0.0027847 v 0.06196 0.06196 l 0.4250128,3.51e-4 0.4250127,3.5e-4 3.507e-4,0.363053 3.507e-4,0.363054 H 0.4281482 0.0027847 v 0.06196 0.06196 h 0.4873201 0.4873201 z"
       id="path234" /><path
       style="fill:#ffffff;stroke-width:0.699481"
       d="m 6.376e-4,2.1717266 c -3.671e-4,-9.8e-4 -5.04e-4,-0.03025 -3.044e-4,-0.06509 l 3.63e-4,-0.06335 0.4250127,-3.51e-4 0.4250127,-3.49e-4 V 1.6819656 1.3213506 H 0.4253608 0 v -0.06474 -0.06474 l 0.4904529,3.5e-4 0.4904528,3.5e-4 3.501e-4,0.488568 c 2.579e-4,0.360019 -6.17e-5,0.489063 -0.00122,0.490452 -0.00223,0.0027 -0.9783721,0.0029 -0.9794035,1.46e-4 z"
       id="path233" /><g
       id="g244"
       transform="translate(1.4009958,-12.973082)"
       style="fill:#ffffff"><path
         id="path230"
         style="fill:#ffffff;stroke-width:0.699481"
         d="m 6.9956493,13.918259 3.532e-4,-0.173695 0.1295076,-3.55e-4 0.1295068,-3.55e-4 0.1236578,0.17405 0.1236578,0.174049 h 0.086925 0.086925 l -0.015801,-0.02193 C 7.4804368,13.820374 7.4139637,13.727596 7.4138476,13.725959 c -9.93e-5,-0.0014 0.00679,-0.0041 0.022831,-0.0092 0.02849,-0.0089 0.0452,-0.01552 0.064044,-0.0254 0.071833,-0.03763 0.1152039,-0.09384 0.1351615,-0.175154 0.00874,-0.0356 0.010233,-0.05078 0.010233,-0.10373 0,-0.04299 -3.309e-4,-0.05016 -0.00315,-0.06823 -0.010429,-0.06695 -0.031882,-0.114523 -0.068836,-0.152671 -0.052993,-0.05471 -0.1339898,-0.0827 -0.2718219,-0.09396 -0.013003,-0.0011 -0.089857,-0.0018 -0.2307805,-0.0022 l -0.2112881,-6.08e-4 v 0.498564 0.498564 h 0.067521 0.067521 z m 3.308e-4,-0.295792 c -3.812e-4,-9.8e-4 -5.323e-4,-0.09298 -3.357e-4,-0.204407 l 3.581e-4,-0.202587 0.1273993,-4.19e-4 c 0.079523,-2.63e-4 0.1386491,1.54e-4 0.157335,0.0011 0.1180592,0.006 0.1764743,0.03162 0.205928,0.0902 0.029504,0.05868 0.027098,0.165998 -0.00504,0.224477 -0.010968,0.01996 -0.030609,0.04181 -0.047733,0.05308 -0.020278,0.01335 -0.047754,0.02359 -0.081452,0.03035 -0.043725,0.0088 -0.04669,0.0089 -0.2085161,0.0095 -0.1203758,4.32e-4 -0.1473793,1.96e-4 -0.1479459,-0.0013 z" /><path
         style="fill:#ffffff;stroke-width:0.699481"
         d="m 6.5052017,14.029298 v -0.06265 H 6.2197653 5.9343294 l 3.539e-4,-0.157683 3.539e-4,-0.157683 0.2474891,-3.52e-4 0.2474891,-3.52e-4 v -0.05848 -0.05848 H 6.182178 5.9343413 V 13.377675 13.221733 H 6.210721 6.4871014 v -0.06335 -0.06335 l -0.3442567,3.51e-4 -0.3442574,3.5e-4 -3.497e-4,0.498112 -3.497e-4,0.49811 h 0.353657 0.353657 z"
         id="path228" /><path
         id="path224"
         style="fill:#ffffff;stroke-width:0.699481"
         d="m 3.4861935,13.974662 0.05169,-0.117305 h 0.2723798 0.2723798 l 0.051691,0.117305 0.051691,0.117304 h 0.071472 c 0.03931,0 0.071466,-4.69e-4 0.071457,-10e-4 -8.3e-6,-5.74e-4 -0.098587,-0.224724 -0.2190631,-0.49811 L 3.890843,13.095753 H 3.81027 3.729697 l -0.2190117,0.497015 c -0.1204565,0.273358 -0.2190118,0.497508 -0.2190118,0.49811 0,6.03e-4 0.032137,0.0011 0.071415,0.0011 h 0.071415 z M 3.593812,13.73229 c 0,-0.0018 0.2137317,-0.488036 0.2151449,-0.489449 3.931e-4,-3.93e-4 0.00136,-6.7e-5 0.00215,7e-4 0.00176,0.0017 0.2143933,0.48303 0.2153581,0.487435 l 6.862e-4,0.0031 h -0.216672 c -0.1789243,0 -0.2166716,-3.21e-4 -0.2166716,-0.0018 z" /><path
         style="fill:#ffffff;stroke-width:0.699481"
         d="m 2.8701394,13.654422 3.503e-4,-0.437543 0.1569866,-3.54e-4 0.1569867,-3.54e-4 v -0.06056 -0.06056 H 2.802265 2.4200668 v 0.06056 0.06056 l 0.1569868,3.54e-4 0.1569866,3.54e-4 3.503e-4,0.437543 3.503e-4,0.437544 h 0.067524 0.067524 z"
         id="path222" /><path
         style="fill:#ffffff;stroke-width:0.699481"
         d="m 5.1024156,14.103023 c 0.03817,-0.0022 0.064208,-0.0061 0.09816,-0.01465 0.085029,-0.02141 0.1613069,-0.06481 0.2289099,-0.130235 l 0.016804,-0.01626 -0.042971,-0.04403 c -0.023633,-0.02422 -0.043237,-0.04403 -0.043563,-0.04403 -3.258e-4,0 -0.00636,0.0049 -0.013402,0.01081 -0.047156,0.0398 -0.093354,0.0688 -0.134796,0.08463 -0.042437,0.01621 -0.095474,0.02401 -0.1527444,0.02249 -0.03184,-8.39e-4 -0.048491,-0.0028 -0.07517,-0.0087 -0.082925,-0.0185 -0.1625542,-0.07165 -0.2167824,-0.144699 -0.03882,-0.05229 -0.060814,-0.107306 -0.07125,-0.17822 -0.00383,-0.02601 -0.00345,-0.0904 6.975e-4,-0.117653 0.015447,-0.101551 0.062474,-0.180737 0.1438866,-0.242281 0.052113,-0.03939 0.1118514,-0.06337 0.1821607,-0.0731 0.022016,-0.0031 0.075252,-0.0042 0.099553,-0.0022 0.094745,0.0079 0.1601219,0.03649 0.2387868,0.104363 0.00804,0.0069 0.014933,0.01258 0.015316,0.01256 3.829e-4,-3.3e-5 0.013227,-0.01388 0.028543,-0.03076 0.015316,-0.01689 0.034359,-0.03786 0.042317,-0.04662 l 0.01447,-0.01591 -0.00542,-0.0056 c -0.019789,-0.0204 -0.055716,-0.04994 -0.08306,-0.06827 -0.1020898,-0.06845 -0.2263975,-0.09567 -0.3642468,-0.07975 -0.1154046,0.01333 -0.2162677,0.05902 -0.298337,0.13516 -0.07318,0.06789 -0.1216105,0.149128 -0.1452465,0.243632 -0.011566,0.04624 -0.015273,0.07924 -0.015312,0.136298 -3.14e-5,0.04533 8.254e-4,0.05792 0.00636,0.09329 0.016345,0.104475 0.063323,0.196677 0.1383362,0.271506 0.091263,0.09104 0.2076438,0.14111 0.3444698,0.148201 0.030191,0.0015 0.037546,0.0015 0.063531,6.4e-5 z"
         id="path220" /><path
         style="fill:#ffffff;stroke-width:0.699481"
         d="m 1.8492063,14.103023 c 0.090179,-0.0051 0.1605918,-0.02873 0.219294,-0.07357 0.011369,-0.0087 0.035483,-0.03218 0.045224,-0.04405 0.029035,-0.03542 0.047472,-0.07855 0.053617,-0.125417 0.00274,-0.02092 0.00274,-0.06434 -1.5e-6,-0.08696 -0.00392,-0.03229 -0.014198,-0.06633 -0.027082,-0.08967 -0.026602,-0.04817 -0.076677,-0.08698 -0.1545626,-0.119771 -0.036559,-0.0154 -0.076191,-0.02781 -0.137882,-0.04322 -0.099646,-0.02488 -0.1647147,-0.04803 -0.1978433,-0.07037 -0.041362,-0.0279 -0.061545,-0.07304 -0.056848,-0.127137 0.00499,-0.05753 0.039121,-0.09607 0.103802,-0.117262 0.064804,-0.02123 0.1603542,-0.01539 0.2507742,0.01533 0.039307,0.01335 0.076433,0.03137 0.1034642,0.05021 l 0.01051,0.0073 0.027084,-0.03844 c 0.014896,-0.02114 0.030693,-0.04358 0.035105,-0.04988 l 0.00802,-0.01144 -0.013172,-0.0092 c -0.075634,-0.05273 -0.1672013,-0.08544 -0.2695041,-0.09626 -0.029119,-0.0031 -0.08274,-0.0031 -0.1111479,3e-6 -0.052884,0.0057 -0.09772,0.0183 -0.1394739,0.03907 -0.070376,0.03502 -0.1144491,0.082 -0.135094,0.144022 -0.00999,0.03 -0.013887,0.05672 -0.013887,0.09514 0,0.07825 0.020738,0.136451 0.063774,0.178995 0.017785,0.01759 0.050163,0.04069 0.077297,0.05517 0.039838,0.02126 0.099314,0.04077 0.2021418,0.0663 0.074384,0.01847 0.1073603,0.02913 0.1425696,0.04605 0.054983,0.02643 0.08097,0.05637 0.089397,0.103006 0.00231,0.01276 0.00231,0.04227 1.3e-6,0.05351 -0.00803,0.03918 -0.028762,0.06832 -0.065356,0.09188 -0.044589,0.02871 -0.1107399,0.03957 -0.1862375,0.03059 -0.086148,-0.01025 -0.1680606,-0.04536 -0.2496029,-0.107006 -0.010234,-0.0077 -0.019712,-0.01488 -0.021062,-0.01586 -0.00221,-0.0016 -0.00662,0.0032 -0.04389,0.04789 -0.022789,0.02733 -0.041506,0.0505 -0.041593,0.0515 -3.883e-4,0.0044 0.056033,0.04556 0.09085,0.06625 0.077612,0.04615 0.1680859,0.07479 0.2584696,0.08185 0.036329,0.0029 0.052761,0.0031 0.082844,0.0014 z"
         id="path218" /><path
         style="fill:#ffffff;stroke-width:0.699481"
         d="m 1.4147976,14.809724 c 0,-0.0018 0.02978,-0.0021 0.259672,-0.0021 h 0.259672 v -0.0181 -0.0181 H 1.6744671 c -0.2298914,0 -0.259672,-2.39e-4 -0.259672,-0.0021 0,-0.0018 0.029827,-0.0021 0.2600896,-0.0021 0.2004356,0 0.260473,3.83e-4 0.2617606,0.0017 0.00232,0.0023 0.00232,0.03889 0,0.04121 -0.00129,0.0013 -0.061325,0.0017 -0.2617606,0.0017 -0.2302625,0 -0.2600896,-2.4e-4 -0.2600896,-0.0021 z"
         id="path215" /><path
         id="path212"
         style="fill:#ffffff;stroke-width:0.699481"
         d="m 6.5403451,14.945144 3.638e-4,-0.05604 0.057085,-7.7e-4 c 0.058547,-8.39e-4 0.068248,-0.0017 0.089806,-0.0077 0.053993,-0.01508 0.079651,-0.04592 0.085176,-0.102381 0.00126,-0.01272 0.00126,-0.0205 -8.75e-5,-0.03403 -0.00602,-0.0619 -0.036303,-0.09441 -0.099708,-0.106947 -0.021215,-0.0042 -0.040311,-0.005 -0.1122311,-0.005 h -0.072254 v 0.184485 0.184486 h 0.025741 0.025741 z m 3.505e-4,-0.10292 c -3.903e-4,-10e-4 -5.47e-4,-0.03851 -3.477e-4,-0.08331 l 3.61e-4,-0.08145 0.035506,-4.22e-4 c 0.097049,-0.0012 0.1284696,0.0107 0.1415254,0.05339 0.00336,0.01105 0.00343,0.04165 6.22e-5,0.05528 -0.00553,0.02257 -0.018403,0.03951 -0.036163,0.04766 -0.018865,0.0087 -0.026203,0.0095 -0.08628,0.01015 -0.044032,4.57e-4 -0.054084,2.19e-4 -0.054664,-0.0013 z" /><path
         id="path208"
         style="fill:#ffffff;stroke-width:0.699481"
         d="m 3.4225545,14.937109 v -0.06407 l 0.047664,3.67e-4 0.047664,3.66e-4 0.045228,0.0637 0.045228,0.0637 h 0.032501 c 0.025632,0 0.03228,-3.68e-4 0.031451,-0.0017 -5.775e-4,-9.79e-4 -0.022008,-0.03085 -0.047623,-0.06642 -0.025615,-0.03557 -0.046639,-0.06553 -0.04672,-0.06658 -9.06e-5,-0.0012 0.00358,-0.0031 0.0096,-0.0051 0.02125,-0.007 0.034121,-0.01481 0.047099,-0.02856 0.01034,-0.01096 0.018895,-0.02677 0.023385,-0.04321 0.00413,-0.01514 0.00521,-0.05305 0.002,-0.07014 -0.00814,-0.04327 -0.031554,-0.06747 -0.076411,-0.07895 -0.026905,-0.0069 -0.031437,-0.0072 -0.1245155,-0.0078 l -0.088066,-6.2e-4 v 0.184586 0.184586 h 0.025758 0.025758 z m 3.36e-4,-0.184816 3.602e-4,-0.07484 0.043859,-4.2e-4 c 0.066856,-6.42e-4 0.092995,0.002 0.1123565,0.01158 0.02121,0.01044 0.029966,0.02875 0.029806,0.06234 -1.901e-4,0.0398 -0.01636,0.06304 -0.049571,0.07124 -0.01617,0.004 -0.03245,0.005 -0.084561,0.005 h -0.052609 z" /><path
         style="fill:#ffffff;stroke-width:0.699481"
         d="m 5.6226961,15.003946 c 0.074735,-0.0071 0.1243146,-0.05392 0.1355762,-0.128077 0.00161,-0.01071 0.00203,-0.03514 0.00203,-0.128444 l 8.4e-6,-0.115216 h -0.025062 -0.025062 v 0.104278 c 0,0.06186 -5.862e-4,0.109987 -0.00147,0.118314 -0.00448,0.0437 -0.023419,0.07557 -0.054259,0.09132 -0.025636,0.01309 -0.058952,0.015 -0.086473,0.005 -0.036635,-0.01337 -0.059971,-0.04693 -0.065194,-0.09378 -9.233e-4,-0.0083 -0.00149,-0.05334 -0.00149,-0.119221 v -0.105916 h -0.025065 -0.025062 l 5.6e-6,0.115913 c 6.1e-6,0.125331 1.012e-4,0.127232 0.00768,0.153547 0.016501,0.05728 0.06483,0.09614 0.1270206,0.102137 0.01755,0.0017 0.020306,0.0017 0.036793,1.4e-4 z"
         id="path206" /><path
         id="path202"
         style="fill:#ffffff;stroke-width:0.699481"
         d="m 4.5893377,15.001716 c 0.065812,-0.01079 0.1223466,-0.05676 0.145677,-0.118443 0.00713,-0.01886 0.010363,-0.03689 0.011177,-0.06237 8.464e-4,-0.02654 -9.513e-4,-0.04257 -0.00719,-0.06404 -0.016429,-0.05656 -0.063937,-0.105208 -0.1209156,-0.123808 -0.04109,-0.01342 -0.0902,-0.01342 -0.1312901,0 -0.027721,0.0091 -0.052288,0.0244 -0.074341,0.04647 -0.036444,0.03646 -0.05423,0.08055 -0.05423,0.134424 0,0.04931 0.015158,0.09099 0.045694,0.125642 0.045376,0.0515 0.1126895,0.07405 0.1854188,0.06213 z m -0.056738,-0.04375 c -0.061179,-0.008 -0.1109632,-0.05806 -0.1201549,-0.120916 -0.00234,-0.016 -9.723e-4,-0.0461 0.00279,-0.06139 0.00846,-0.03436 0.034712,-0.06947 0.0658,-0.08798 0.022229,-0.01324 0.042005,-0.01831 0.071405,-0.01831 0.037095,0 0.06343,0.0093 0.090502,0.03206 0.032658,0.02743 0.050821,0.06763 0.050821,0.112514 0,0.03573 -0.010263,0.06584 -0.031467,0.09235 -0.031438,0.03929 -0.079036,0.05825 -0.1296965,0.05166 z" /><path
         style="fill:#ffffff;stroke-width:0.699481"
         d="m 2.5409078,15.003816 c 0.045879,-0.005 0.082257,-0.02023 0.1091914,-0.04563 l 0.00945,-0.0089 v -0.0604 -0.0604 h -0.025758 -0.025758 v 0.05073 0.05073 l -0.00416,0.0029 c -0.00678,0.0048 -0.026398,0.01352 -0.037612,0.01667 -0.033143,0.0093 -0.075422,0.0093 -0.1023372,5.7e-5 -0.02004,-0.0069 -0.039502,-0.01944 -0.054403,-0.03505 -0.017326,-0.01815 -0.028176,-0.03945 -0.034269,-0.06729 -0.00117,-0.0053 -0.00178,-0.01743 -0.0017,-0.03341 1.114e-4,-0.02219 5.306e-4,-0.02658 0.00367,-0.0383 0.0071,-0.02659 0.017736,-0.04449 0.037722,-0.06351 0.019621,-0.01867 0.039833,-0.02945 0.066838,-0.03564 0.010261,-0.0024 0.017315,-0.0029 0.035757,-0.0029 0.036342,3.7e-5 0.060747,0.0066 0.084508,0.02272 0.0058,0.0039 0.010978,0.0066 0.011518,0.006 0.00242,-0.0028 0.023877,-0.03405 0.024494,-0.03566 7.065e-4,-0.0018 -0.00269,-0.0048 -0.016062,-0.0136 -0.045889,-0.03045 -0.1177805,-0.03879 -0.173602,-0.02013 -0.030663,0.01025 -0.056655,0.0271 -0.079521,0.05154 -0.024922,0.02664 -0.040604,0.0579 -0.047152,0.09398 -0.00328,0.01809 -0.00328,0.0557 0,0.07379 0.00692,0.03812 0.023408,0.06989 0.050278,0.09686 0.030644,0.03076 0.064786,0.04792 0.1079457,0.05426 0.015051,0.0022 0.043522,0.0024 0.06097,5.62e-4 z"
         id="path200" /><path
         id="rect243"
         style="fill:#ffffff;fill-opacity:1;stroke-width:1.2901"
         d="m 7.6750866,14.768895 v 0.0413 z m -0.5193798,0.04125 c -0.00112,-0.0011 -0.00168,-0.0077 -0.00168,-0.02061 0,-0.01287 5.351e-4,-0.01947 0.00168,-0.02061 0.00126,-0.0013 0.061324,-0.0017 0.2617605,-0.0017 0.2302623,0 0.2600895,2.4e-4 0.2600895,0.0021 0,0.0018 -0.029777,0.0021 -0.2596719,0.0021 H 7.1582131 v 0.0181 0.0181 H 7.417885 c 0.2298915,0 0.2596719,2.39e-4 0.2596719,0.0021 0,0.0018 -0.029826,0.0021 -0.2600902,0.0021 -0.2004349,0 -0.2604728,-3.83e-4 -0.2617598,-0.0017 z" /><rect
         style="fill:#ffffff;fill-opacity:1;stroke-width:1.2901;stroke-dasharray:none"
         id="rect244"
         width="0.50594598"
         height="0.041341886"
         x="7.1570687"
         y="14.768896" /><rect
         style="fill:#ffffff;fill-opacity:1;stroke-width:1.2901;stroke-dasharray:none"
         id="rect244-5"
         width="0.50594598"
         height="0.041341886"
         x="-1.9359235"
         y="14.767943"
         transform="scale(-1,1)" /></g></g></svg>
