<?xml version="1.0" encoding="UTF-8" standalone="no"?>
<!-- Created with Inkscape (http://www.inkscape.org/) -->

<svg
   width="169.04942mm"
   height="170.07094mm"
   viewBox="0 0 16.099946 16.197236"
   version="1.1"
   id="svg1"
   xml:space="preserve"
   sodipodi:docname="stacer-on-dark.svg"
   inkscape:export-filename="stacer-on-dark.svg"
   inkscape:export-xdpi="96.761902"
   inkscape:export-ydpi="96.761902"
   inkscape:version="1.4.1 (93de688d07, 2025-03-30)"
   xmlns:inkscape="http://www.inkscape.org/namespaces/inkscape"
   xmlns:sodipodi="http://sodipodi.sourceforge.net/DTD/sodipodi-0.dtd"
   xmlns="http://www.w3.org/2000/svg"
   xmlns:svg="http://www.w3.org/2000/svg"><sodipodi:namedview
     id="namedview1"
     pagecolor="#ffffff"
     bordercolor="#000000"
     borderopacity="0.25"
     inkscape:showpageshadow="2"
     inkscape:pageopacity="0.0"
     inkscape:pagecheckerboard="0"
     inkscape:deskcolor="#d1d1d1"
     inkscape:document-units="mm"
     showgrid="false"
     inkscape:zoom="0.58482889"
     inkscape:cx="368.48385"
     inkscape:cy="490.74183"
     inkscape:window-width="1680"
     inkscape:window-height="1031"
     inkscape:window-x="0"
     inkscape:window-y="19"
     inkscape:window-maximized="1"
     inkscape:current-layer="svg1" /><defs
     id="defs1" /><g
     id="layer1"
     transform="matrix(0.07731011,0,0,0.07905297,-0.08586025,-0.22859964)"><path
       style="fill:#000000"
       d="M 1.1105954,105.33717 V 2.8917274 H 105.23635 209.3621 V 105.33717 207.78262 H 105.23635 1.1105954 Z M 189.33821,195.86886 c 0.66666,-0.16973 1.71251,-0.59742 2.3241,-0.95042 2.31746,-1.33759 9.09372,-8.28239 9.65074,-9.89079 0.28788,-0.83125 0.32097,-4.78667 0.32097,-38.36778 0,-28.85398 -0.056,-37.49605 -0.24404,-37.68109 -0.38871,-0.38243 -56.66239,-0.34443 -57.59485,0.0389 -1.31677,0.5413 -1.34196,0.65839 -1.34196,6.23881 0,4.88559 0.013,5.04743 0.45923,5.70804 0.25257,0.37393 0.86682,0.88246 1.365,1.13007 l 0.90577,0.4502 h 21.06678 c 16.11411,0 21.12415,0.0564 21.31082,0.24011 0.18753,0.1845 0.24301,6.70694 0.23958,28.16249 -0.004,26.83874 -0.0192,27.95435 -0.3846,28.74597 -0.41581,0.90087 -1.36029,1.69519 -2.43763,2.05008 -1.02235,0.33677 -56.98773,0.32468 -57.33033,-0.0124 -0.18798,-0.18495 -0.24404,-8.40921 -0.24404,-35.80054 v -35.56043 l -0.52342,-0.612 c -0.81955,-0.95826 -1.49814,-1.05261 -7.06811,-0.98272 l -5.04939,0.0633 -0.69583,0.7474 -0.69583,0.74739 v 42.59735 c 0,35.50243 0.0457,42.63466 0.27437,42.82137 0.19962,0.163 9.99145,0.23796 35.94575,0.27518 19.61927,0.0281 36.31566,0.0734 37.1031,0.1006 0.80246,0.0277 1.96445,-0.0862 2.64382,-0.25915 z m -92.149525,-0.2059 c 0.28851,-0.28386 0.31958,-4.42038 0.31958,-42.54527 v -42.23085 l -0.43817,-0.69753 c -0.25439,-0.40497 -0.7875,-0.85362 -1.27106,-1.06969 -0.80349,-0.35901 -2.35203,-0.37231 -43.85595,-0.37655 -33.19621,-0.003 -43.0787996,0.0504 -43.2670996,0.23571 -0.3492,0.34356 -0.3492,12.98236 0,13.32592 0.18804,0.185 8.8217596,0.2401 37.6235596,0.2401 h 37.37952 v 29.47308 c 0,22.65672 -0.0564,29.5286 -0.24404,29.71318 -0.18803,0.18499 -8.75075,0.24011 -37.30399,0.24011 -33.41969,0 -37.0913196,0.0309 -37.3795196,0.31442 -0.27715,0.27268 -0.31958,1.16069 -0.31958,6.68868 0,5.528 0.0424,6.416 0.31958,6.68869 0.28856,0.2839 4.5815696,0.31442 44.2185896,0.31442 39.63702,0 43.93002,-0.0305 44.21858,-0.31442 z m -0.41964,-101.945455 0.53585,-0.4147 v -5.95855 c 0,-5.86168 -0.007,-5.96961 -0.46164,-6.63843 -0.2539,-0.37393 -0.78012,-0.83731 -1.16938,-1.02972 -0.66583,-0.32913 -2.8411,-0.34987 -36.73028,-0.35016 -30.36867,-2.6e-4 -36.05908,-0.0436 -36.25532,-0.27626 -0.17275,-0.2048 -0.2185,-6.87339 -0.17743,-25.86147 0.0619,-28.619715 -0.0695,-26.23783 1.51371,-27.426003 l 0.747,-0.560587 35.77587,-0.100045 35.77587,-0.100044 0.49368,-0.564692 0.49367,-0.564692 -0.0537,-6.238326 -0.0537,-6.238326 -37.92557,-0.05055 c -42.32239,-0.05641 -38.92221,-0.17094 -41.29975,1.391101 -1.87038,1.228838 -7.84553,7.261514 -8.7324696,8.816547 l -0.71179,1.247963 -0.0531,35.197364 c -0.0473,31.35479 -0.019,35.2485 0.2589,35.66582 l 0.31198,0.46846 h 43.5908796 43.59089 z m 29.421135,0.11118 c 1.30004,-0.66143 1.21357,1.82274 1.21357,-34.86215 0,-25.69913 0.0562,-33.440017 0.24404,-33.624848 0.188,-0.184968 8.63776,-0.240107 36.79556,-0.240107 33.0901,0 36.58203,-0.03003 36.87384,-0.317137 0.28333,-0.278751 0.31586,-1.108239 0.26874,-6.85304 l -0.0536,-6.535903 -43.80497,-0.05048 c -32.34687,-0.03728 -43.87745,0.0087 -44.08205,0.175759 -0.23249,0.189843 -0.26865,6.758994 -0.22476,40.834986 l 0.0523,40.60875 0.66416,0.58384 0.66416,0.58385 h 5.39622 c 4.42563,0 5.50351,-0.0546 5.99278,-0.30352 z m 75.1998,0.0634 c 0.37886,-0.37275 0.34693,-14.03327 -0.0335,-14.34394 -0.2045,-0.16698 -7.8055,-0.21294 -28.87473,-0.17456 l -28.59716,0.0521 -0.66485,0.65386 -0.66484,0.65386 -0.0592,6.07404 -0.0592,6.07404 0.53484,0.62536 0.53483,0.62536 h 28.81988 c 22.14429,0 28.8764,-0.0556 29.06392,-0.2401 z"
       id="path1" /></g></svg>
