<?xml version="1.0" encoding="UTF-8" standalone="no"?>
<!-- Created with Inkscape (http://www.inkscape.org/) -->

<svg
   width="46.510033mm"
   height="36.660725mm"
   viewBox="0 0 46.510033 36.660725"
   version="1.1"
   id="svg1"
   xml:space="preserve"
   xmlns="http://www.w3.org/2000/svg"
   xmlns:svg="http://www.w3.org/2000/svg"><defs
     id="defs1" /><g
     id="layer1"
     transform="translate(-73.732578,-71.160486)"><path
       style="fill:#000000"
       d="m 77.044633,107.59592 c -1.27111,-0.26531 -2.68176,-1.44049 -3.02695,-2.52168 -0.38014,-1.19066 -0.38014,-29.952461 0,-31.143121 0.36998,-1.15882 1.73967,-2.24838 3.18804,-2.53602 1.57586,-0.31296 37.985767,-0.31275 39.561717,2.3e-4 1.48196,0.2943 2.80421,1.33715 3.17737,2.50595 0.39707,1.2437 0.39707,29.959101 0,31.202801 -0.37316,1.16881 -1.69541,2.21165 -3.17737,2.50596 -1.46178,0.2903 -38.327097,0.2772 -39.722807,-0.0141 z m 20.15461,-7.51459 c 2.61379,-0.859771 4.050927,-3.280751 3.412837,-5.749231 -0.40323,-1.55993 -1.373687,-2.88867 -3.875807,-5.30673 -4.72303,-4.56434 -5.15352,-5.18339 -4.6063,-6.6239 0.32207,-0.8478 0.83407,-1.10846 2.17729,-1.10846 1.66971,0 2.43254,1.03161 2.43532,3.29341 l 0.001,1.09781 h 1.68992 c 1.639077,0 1.695267,-0.0158 1.867637,-0.52504 0.0977,-0.28877 0.17526,-1.21954 0.17225,-2.06839 -0.005,-1.3376 -0.0949,-1.66372 -0.676347,-2.44623 -1.04903,-1.41178 -2.71776,-2.03948 -5.4493,-2.04978 -2.19419,-0.008 -3.32317,0.31735 -4.60472,1.32809 -1.37176,1.08189 -1.81123,2.12763 -1.67496,3.9856 0.14234,1.94069 1.07388,3.29697 4.43129,6.45175 3.32359,3.123 4.00216,4.05375 4.00216,5.48953 0,1.23403 -0.4527,1.80482 -1.56153,1.96888 -2.27119,0.33604 -3.26506,-0.60885 -3.27467,-3.11332 l -0.005,-1.38419 h -1.68992 c -1.63703,0 -1.69574,0.0164 -1.87609,0.52504 -0.10239,0.28877 -0.18321,1.21236 -0.1796,2.05242 0.008,1.7893 0.55098,2.81088 1.93884,3.64577 1.66211,0.999861 5.1609,1.255621 7.34567,0.536971 z m -10.86457,-1.032521 v -1.33646 h -2.78387 -2.78387 v -9.45067 -9.45067 h -2.17869 -2.17868 v 10.65985 c 0,5.86292 0.0726,10.717121 0.16138,10.787131 0.0888,0.07 2.32192,0.12728 4.96256,0.12728 h 4.80117 z m 26.957867,0.70088 c 2.31889,-0.84482 3.49333,-2.26773 4.00077,-4.84718 0.34684,-1.76305 0.34868,-9.02726 0.003,-10.78578 -0.51372,-2.61137 -1.90766,-4.2275 -4.23988,-4.9157 -1.12818,-0.33291 -1.88744,-0.39002 -5.18582,-0.39002 h -3.8644 v 10.65985 c 0,5.86292 0.0817,10.727921 0.18156,10.811121 0.0998,0.0832 1.90938,0.0994 4.02118,0.0361 3.34312,-0.10028 4.00048,-0.17378 5.08359,-0.568381 z m -4.92897,-10.12503 v -8.33165 h 1.19899 c 1.58546,0 2.31688,0.28912 2.84412,1.12426 0.38499,0.60981 0.44449,1.37359 0.51478,6.6081 0.10861,8.08736 -0.074,8.61027 -3.08276,8.82545 l -1.47513,0.10549 z"
       id="path1" /></g></svg>
